<svg xmlns="http://www.w3.org/2000/svg" viewBox="0 0 512 512" role="img" aria-label="word-dragon-placeholder">
  <defs>
    <linearGradient id="body" x1="0" y1="0" x2="1" y2="1">
      <stop offset="0" stop-color="#FFD27A"/>
      <stop offset="1" stop-color="#FF9C58"/>
    </linearGradient>
    <filter id="soft" x="-20%" y="-20%" width="140%" height="140%"><feDropShadow dx="0" dy="16" stdDeviation="16" flood-color="#8BB461" flood-opacity="0.22"/></filter>
  </defs>
  <g id="word-dragon-placeholder" filter="url(#soft)">
    <ellipse cx="256" cy="430" rx="132" ry="28" fill="#7CAF57" opacity="0.22"/>
    <path d="M122 320c-38 16-72 8-92-18 32 1 50-13 64-38" fill="#FFB45F"/>
    <ellipse cx="246" cy="278" rx="136" ry="118" fill="url(#body)"/>
    <ellipse cx="286" cy="332" rx="70" ry="92" fill="#FFF0C7"/>
    <circle cx="284" cy="188" r="112" fill="#FFD27A"/>
    <ellipse cx="304" cy="220" rx="74" ry="46" fill="#FFF0C7"/>
    <circle cx="242" cy="178" r="15" fill="#3C3328"/>
    <circle cx="337" cy="178" r="15" fill="#3C3328"/>
    <circle cx="247" cy="172" r="5" fill="#FFFFFF"/>
    <circle cx="342" cy="172" r="5" fill="#FFFFFF"/>
    <ellipse cx="223" cy="232" rx="22" ry="10" fill="#E85D82" opacity="0.7"/>
    <ellipse cx="371" cy="232" rx="22" ry="10" fill="#E85D82" opacity="0.7"/>
    <path d="M272 236c20 28 52 28 72 0" fill="none" stroke="#3C3328" stroke-width="9" stroke-linecap="round"/>
    <path d="M208 86l-25 44 49-8zM345 84l-34 38 52 1z" fill="#F7C84D"/>
    <path d="M126 245c-34-4-58-25-67-56 38 0 67 13 88 40zM389 246c34-4 58-25 67-56-38 0-67 13-88 40z" fill="#FFB45F" opacity="0.88"/>
    <path d="M208 112c-18 6-33 16-45 31M346 112c18 6 33 16 45 31" stroke="#3C3328" stroke-opacity="0.12" stroke-width="8" stroke-linecap="round"/>
  </g>
</svg>